<?xml version="1.0" encoding="UTF-8"?>
<svg id="Calque_1" xmlns="http://www.w3.org/2000/svg" version="1.1" viewBox="0 0 500 160">
  <!-- Generator: Adobe Illustrator 29.5.0, SVG Export Plug-In . SVG Version: 2.1.0 Build 137)  -->
  <defs>
    <style>
      .st0 {
        fill: #14c8ca;
      }

      .st1 {
        fill: #082e51;
      }
    </style>
  </defs>
  <path class="st0" d="M82.14,155.22c-3.26-3.47-8.38-17.7-12.18-19.1-4.53-1.67-9.91-1.02-14.01-1.04-9.48-.02-11.69-.06-33.68-.26C9.7,134.71.18,121.56-.02,106.26c-.35-26.96.63-42.63.07-70.29C-.11,14.26,12.02,7.46,30.72,7c26.38-.66,45.47.15,71.96.1,26.01-1.13,30.64,9.16,30.42,28.61-.22,19.75,1.47,48.7-.18,67.58-1.89,18.17-12.61,28.5-30.09,31.43-4.05.68-13.65-.86-14.74,5.32-.93,5.26,3.45,19.4-5.97,15.18h0ZM29.4,19.78c-22.19.92-17.71,17.04-18.02,39.9.52,16.52.55,24.52.95,44.69.46,14.4,12.25,18.76,20.15,19.45,23.83.16,45.76.6,67.93-.03,9.68-1.2,18.79-9.94,19.64-19.94,1.73-20.34.74-34.5-.02-63.78-.27-9.56,2.09-21.03-20.86-20.89-21.53-.08-13.18.04-35.99.2l-33.77.38Z"/>
  <path class="st1" d="M207.78,57.35l-11.44,4.05c-3.13-6.35-7.31-10.59-14.62-11.18-1.97-.16-4.64-.63-7.94.26-.81.22-3.09.89-5.55,2.63-2.77,1.95-4.27,4.17-5.02,5.31-4.25,6.41-4.1,13.94-4.06,15.25.05,1.6.76,16.57,12.11,22.35,1.94.99,7.22,3.27,13.57,1.5,4.85-1.35,8.99-4.91,12.22-10.32l10.7,4.17c-3.92,13.35-17.79,20.9-31.21,19.54-41.91-4.24-39.07-77.03,8.7-72.62,10.42.96,19.73,8.87,22.55,19.05h-.01Z"/>
  <path class="st1" d="M248.95,59.73c6.31,2.55,9.08,8.21,9.76,9.64.67,1.42,1.5,3.61,1.83,6.48v34.86h-12.88v-31.88c-.46-3.38-1.96-4.98-2.63-5.66-4.95-4.98-12.99-2.62-17.08,2.98-.44.6-1.26,1.47-1.36,4.47v30.09h-12.88V36.81h12.88v29.8c.46-1.36,1.34-2.3,2.37-3.46.91-1.01,2.13-1.97,2.97-2.54,3.87-2.61,9.95-2.21,11.13-2.12,1.65.13,3.55.29,5.89,1.23h0Z"/>
  <path class="st1" d="M388.17,36.81v42.91c.94-1.01,1.88-2.03,2.82-3.05,5.47-5.94,10.87-11.87,16.21-17.81h16.1l-20.45,21.83,20.45,30.01h-15.22l-15.8-22.95c-.05-.08-.14-.19-.28-.24-.4-.14-.91.36-1.15.6-.7.69-1.6,1.57-2.68,2.63v19.96h-12.88V36.81h12.88,0Z"/>
  <path class="st1" d="M303.1,59.94c6.63,3.43,9.5,9.41,10.47,11.53,3.23,7.02,2.44,13.5,2,15.99h-36.3c-.44,5.96,3.88,13.16,10.25,13.16,1.31,0,5.63-.5,6.9-.77,2.21-.48,5.59-3.18,6.6-5.27l9.63,5.69c-9.38,16.5-37.23,15.55-44.19-2.68-4.91-12.85-1.14-30.05,9.96-36.6,4.03-2.38,10.13-4.03,16.42-3.37,1.77.18,4.82.54,8.27,2.32h0ZM303.28,78.52c-.68-14.82-22.7-14.22-24,0h24Z"/>
  <path class="st1" d="M461.07,58.86l13.46,35.16,11.42-35.16h14.05c-7.69,18.12-13.07,37.32-20.8,55.4-5.43,12.68-10.17,19.5-25.49,15.8.01-.39.02-.79.04-1.18v-9.24c8.54,2.71,11.75-2.23,13.88-9.74l-20.32-51.04h13.76Z"/>
  <path class="st1" d="M368.85,95.81c-5.22,17.16-30.94,20.92-42.17,8.05-6.93-7.95-7.78-23.41-3.51-32.79,7.39-16.26,29.3-17.54,41.22-5.59.88.88,4.84,5.51,4.2,6.51-3.52,1.6-7.05,3.19-10.57,4.79-.54-1-2.94-5.08-8.02-6.78-.83-.27-6.5-2.11-11.39,1.21-4.12,2.8-5.97,8.48-5.5,15.39,1.05,15.3,18.41,17.1,24.96,4.49l10.77,4.73h0Z"/>
  <rect class="st1" x="428.57" y="36.81" width="12.88" height="73.89"/>
  <path class="st0" d="M95.29,44.05c3.05-.56,12.02,7.94,8.59,11.78l-44.88,44.88c-2.72,1.15-4.27.17-6.31-1.61l-21.32-22.99c-2.4-2.79,3.55-9.53,5.54-10.39,1.05-.45,2.68-.52,3.78-.3,3.01.61,15.02,16.26,16.32,16.03l38.28-37.4h0Z"/>
</svg>